<mxfile host="app.diagrams.net" modified="2021-03-29T13:19:16.964Z" agent="5.0 (Windows NT 10.0; Win64; x64) AppleWebKit/537.36 (KHTML, like Gecko) Chrome/89.0.4389.90 Safari/537.36" etag="3vMkAzzdwdVBxPvyVhng" version="14.5.3" type="github">
  <diagram name="Page-1" id="97916047-d0de-89f5-080d-49f4d83e522f">
    <mxGraphModel dx="1736" dy="968" grid="1" gridSize="10" guides="1" tooltips="1" connect="1" arrows="1" fold="1" page="1" pageScale="1.5" pageWidth="1169" pageHeight="827" math="0" shadow="0">
      <root>
        <mxCell id="0" />
        <mxCell id="1" parent="0" />
        <mxCell id="p5EANFIyzBUAHmhCL9tE-77" style="edgeStyle=orthogonalEdgeStyle;curved=0;rounded=1;sketch=0;orthogonalLoop=1;jettySize=auto;html=1;exitX=0.5;exitY=1;exitDx=0;exitDy=0;fontColor=#FFFFFF;" edge="1" parent="1" source="2" target="18">
          <mxGeometry relative="1" as="geometry" />
        </mxCell>
        <mxCell id="p5EANFIyzBUAHmhCL9tE-79" style="edgeStyle=orthogonalEdgeStyle;curved=0;rounded=1;sketch=0;orthogonalLoop=1;jettySize=auto;html=1;exitX=0.5;exitY=1;exitDx=0;exitDy=0;fontColor=#FFFFFF;entryX=0.455;entryY=-0.083;entryDx=0;entryDy=0;entryPerimeter=0;" edge="1" parent="1" source="2" target="5">
          <mxGeometry relative="1" as="geometry" />
        </mxCell>
        <mxCell id="p5EANFIyzBUAHmhCL9tE-80" style="edgeStyle=orthogonalEdgeStyle;curved=0;rounded=1;sketch=0;orthogonalLoop=1;jettySize=auto;html=1;exitX=0.5;exitY=1;exitDx=0;exitDy=0;entryX=0.5;entryY=0;entryDx=0;entryDy=0;fontColor=#FFFFFF;" edge="1" parent="1" source="2" target="4">
          <mxGeometry relative="1" as="geometry" />
        </mxCell>
        <mxCell id="p5EANFIyzBUAHmhCL9tE-81" style="edgeStyle=orthogonalEdgeStyle;curved=0;rounded=1;sketch=0;orthogonalLoop=1;jettySize=auto;html=1;exitX=0.5;exitY=1;exitDx=0;exitDy=0;fontColor=#FFFFFF;" edge="1" parent="1" source="2" target="7">
          <mxGeometry relative="1" as="geometry" />
        </mxCell>
        <mxCell id="p5EANFIyzBUAHmhCL9tE-82" style="edgeStyle=orthogonalEdgeStyle;curved=0;rounded=1;sketch=0;orthogonalLoop=1;jettySize=auto;html=1;exitX=0.5;exitY=1;exitDx=0;exitDy=0;fontColor=#FFFFFF;" edge="1" parent="1" source="2" target="23">
          <mxGeometry relative="1" as="geometry" />
        </mxCell>
        <mxCell id="p5EANFIyzBUAHmhCL9tE-110" style="edgeStyle=orthogonalEdgeStyle;curved=0;rounded=1;sketch=0;orthogonalLoop=1;jettySize=auto;html=1;strokeColor=#000000;fontColor=#FFFFFF;" edge="1" parent="1" source="2" target="6">
          <mxGeometry relative="1" as="geometry" />
        </mxCell>
        <mxCell id="2" value="PROJETO" style="rounded=1;strokeColor=#6F0000;shadow=1;fontStyle=1;fontSize=14;fillColor=#a20025;labelBackgroundColor=none;labelBorderColor=none;fontColor=#ffffff;" parent="1" vertex="1">
          <mxGeometry x="810" y="190" width="200" height="60" as="geometry" />
        </mxCell>
        <mxCell id="p5EANFIyzBUAHmhCL9tE-83" style="edgeStyle=orthogonalEdgeStyle;curved=0;rounded=1;sketch=0;orthogonalLoop=1;jettySize=auto;html=1;exitX=0.5;exitY=1;exitDx=0;exitDy=0;fontColor=#FFFFFF;" edge="1" parent="1" source="4" target="8">
          <mxGeometry relative="1" as="geometry" />
        </mxCell>
        <mxCell id="4" value="GERENCIAMENTO" style="rounded=1;shadow=1;fontStyle=1;fontSize=14;fillColor=#dae8fc;strokeColor=#BACEFC;" parent="1" vertex="1">
          <mxGeometry x="240" y="370" width="200" height="60" as="geometry" />
        </mxCell>
        <mxCell id="p5EANFIyzBUAHmhCL9tE-92" style="edgeStyle=orthogonalEdgeStyle;curved=0;rounded=1;sketch=0;orthogonalLoop=1;jettySize=auto;html=1;exitX=0.5;exitY=1;exitDx=0;exitDy=0;fontColor=#FFFFFF;" edge="1" parent="1" source="5" target="13">
          <mxGeometry relative="1" as="geometry" />
        </mxCell>
        <mxCell id="5" value="DOCUMENTAÇÃO" style="rounded=1;shadow=1;fontStyle=1;fontSize=14;fillColor=#dae8fc;strokeColor=#BACEFC;" parent="1" vertex="1">
          <mxGeometry x="460" y="370" width="200" height="60" as="geometry" />
        </mxCell>
        <mxCell id="p5EANFIyzBUAHmhCL9tE-94" style="edgeStyle=orthogonalEdgeStyle;curved=0;rounded=1;sketch=0;orthogonalLoop=1;jettySize=auto;html=1;exitX=0.5;exitY=1;exitDx=0;exitDy=0;fontColor=#FFFFFF;" edge="1" parent="1" source="6">
          <mxGeometry relative="1" as="geometry">
            <mxPoint x="776.75" y="480" as="targetPoint" />
          </mxGeometry>
        </mxCell>
        <mxCell id="6" value="FERRAMENTAS" style="rounded=1;shadow=1;fontStyle=1;fontSize=14;fillColor=#dae8fc;strokeColor=#BACEFC;" parent="1" vertex="1">
          <mxGeometry x="676.75" y="370" width="200" height="60" as="geometry" />
        </mxCell>
        <mxCell id="p5EANFIyzBUAHmhCL9tE-103" style="edgeStyle=orthogonalEdgeStyle;curved=0;rounded=1;sketch=0;orthogonalLoop=1;jettySize=auto;html=1;exitX=0.5;exitY=1;exitDx=0;exitDy=0;entryX=0.5;entryY=0;entryDx=0;entryDy=0;fontColor=#FFFFFF;" edge="1" parent="1" source="7" target="22">
          <mxGeometry relative="1" as="geometry" />
        </mxCell>
        <mxCell id="7" value="TESTE" style="rounded=1;shadow=1;fontStyle=1;fontSize=14;fillColor=#dae8fc;strokeColor=#BACEFC;" parent="1" vertex="1">
          <mxGeometry x="1110" y="370" width="200" height="60" as="geometry" />
        </mxCell>
        <mxCell id="p5EANFIyzBUAHmhCL9tE-84" style="edgeStyle=orthogonalEdgeStyle;curved=0;rounded=1;sketch=0;orthogonalLoop=1;jettySize=auto;html=1;exitX=0.5;exitY=1;exitDx=0;exitDy=0;entryX=0.5;entryY=0;entryDx=0;entryDy=0;fontColor=#FFFFFF;" edge="1" parent="1" source="8" target="9">
          <mxGeometry relative="1" as="geometry" />
        </mxCell>
        <mxCell id="8" value="REUNIÕES" style="rounded=1;shadow=1;fontStyle=1;fontSize=14;fillColor=#fff2cc;strokeColor=#d6b656;" parent="1" vertex="1">
          <mxGeometry x="240" y="480" width="200" height="60" as="geometry" />
        </mxCell>
        <mxCell id="p5EANFIyzBUAHmhCL9tE-85" style="edgeStyle=orthogonalEdgeStyle;curved=0;rounded=1;sketch=0;orthogonalLoop=1;jettySize=auto;html=1;exitX=0.5;exitY=1;exitDx=0;exitDy=0;fontColor=#FFFFFF;" edge="1" parent="1" source="9" target="10">
          <mxGeometry relative="1" as="geometry" />
        </mxCell>
        <mxCell id="9" value="PLANEJAMENTO" style="rounded=1;shadow=1;fontStyle=1;fontSize=14;fillColor=#fff2cc;strokeColor=#d6b656;" parent="1" vertex="1">
          <mxGeometry x="240" y="590" width="200" height="60" as="geometry" />
        </mxCell>
        <mxCell id="p5EANFIyzBUAHmhCL9tE-87" style="edgeStyle=orthogonalEdgeStyle;curved=0;rounded=1;sketch=0;orthogonalLoop=1;jettySize=auto;html=1;exitX=0.5;exitY=1;exitDx=0;exitDy=0;fontColor=#FFFFFF;" edge="1" parent="1" source="10" target="11">
          <mxGeometry relative="1" as="geometry" />
        </mxCell>
        <mxCell id="10" value="DIVISÕES DE CARGOS E &#xa;TRABALHOS" style="rounded=1;shadow=1;fontStyle=1;fontSize=14;fillColor=#fff2cc;strokeColor=#d6b656;" parent="1" vertex="1">
          <mxGeometry x="240" y="700" width="200" height="60" as="geometry" />
        </mxCell>
        <mxCell id="p5EANFIyzBUAHmhCL9tE-86" style="edgeStyle=orthogonalEdgeStyle;curved=0;rounded=1;sketch=0;orthogonalLoop=1;jettySize=auto;html=1;exitX=0.5;exitY=0;exitDx=0;exitDy=0;fontColor=#FFFFFF;" edge="1" parent="1" source="11">
          <mxGeometry relative="1" as="geometry">
            <mxPoint x="340" y="830" as="targetPoint" />
          </mxGeometry>
        </mxCell>
        <mxCell id="11" value="EXECUÇÃO" style="rounded=1;strokeColor=#d6b656;shadow=1;fontStyle=1;fontSize=14;fillColor=#fff2cc;" parent="1" vertex="1">
          <mxGeometry x="240" y="810" width="200" height="60" as="geometry" />
        </mxCell>
        <mxCell id="p5EANFIyzBUAHmhCL9tE-89" style="edgeStyle=orthogonalEdgeStyle;curved=0;rounded=1;sketch=0;orthogonalLoop=1;jettySize=auto;html=1;exitX=0.5;exitY=1;exitDx=0;exitDy=0;fontColor=#FFFFFF;" edge="1" parent="1" source="13" target="14">
          <mxGeometry relative="1" as="geometry" />
        </mxCell>
        <mxCell id="13" value="TERMO DE ABETURA" style="rounded=1;strokeColor=#d6b656;shadow=1;fontStyle=1;fontSize=14;fillColor=#fff2cc;" parent="1" vertex="1">
          <mxGeometry x="460" y="480" width="200" height="60" as="geometry" />
        </mxCell>
        <mxCell id="14" value="DOCUMENTAÇÃO&#xa;DO USUÁRIO" style="rounded=1;strokeColor=#d6b656;shadow=1;fontStyle=1;fontSize=14;fillColor=#fff2cc;" parent="1" vertex="1">
          <mxGeometry x="460" y="590" width="200" height="60" as="geometry" />
        </mxCell>
        <mxCell id="16" value="CSS 3" style="rounded=1;strokeColor=#d6b656;shadow=1;fontStyle=1;fontSize=14;fillColor=#fff2cc;" parent="1" vertex="1">
          <mxGeometry x="677" y="700" width="200" height="60" as="geometry" />
        </mxCell>
        <mxCell id="p5EANFIyzBUAHmhCL9tE-99" style="edgeStyle=orthogonalEdgeStyle;curved=0;rounded=1;sketch=0;orthogonalLoop=1;jettySize=auto;html=1;exitX=0.5;exitY=1;exitDx=0;exitDy=0;entryX=0.5;entryY=0;entryDx=0;entryDy=0;fontColor=#FFFFFF;" edge="1" parent="1" source="18" target="24">
          <mxGeometry relative="1" as="geometry" />
        </mxCell>
        <mxCell id="18" value="DESENVOLVIMENTO" style="rounded=1;shadow=1;fontStyle=1;fontSize=14;fillColor=#dae8fc;strokeColor=#BACEFC;" parent="1" vertex="1">
          <mxGeometry x="892" y="370" width="200" height="60" as="geometry" />
        </mxCell>
        <mxCell id="p5EANFIyzBUAHmhCL9tE-97" style="edgeStyle=orthogonalEdgeStyle;curved=0;rounded=1;sketch=0;orthogonalLoop=1;jettySize=auto;html=1;exitX=0.5;exitY=1;exitDx=0;exitDy=0;fontColor=#FFFFFF;" edge="1" parent="1" source="19" target="20">
          <mxGeometry relative="1" as="geometry" />
        </mxCell>
        <mxCell id="19" value="HTML 5" style="rounded=1;strokeColor=#d6b656;shadow=1;fontStyle=1;fontSize=14;fillColor=#fff2cc;" parent="1" vertex="1">
          <mxGeometry x="677" y="480" width="200" height="60" as="geometry" />
        </mxCell>
        <mxCell id="p5EANFIyzBUAHmhCL9tE-98" style="edgeStyle=orthogonalEdgeStyle;curved=0;rounded=1;sketch=0;orthogonalLoop=1;jettySize=auto;html=1;exitX=0.5;exitY=1;exitDx=0;exitDy=0;fontColor=#FFFFFF;" edge="1" parent="1" source="20" target="16">
          <mxGeometry relative="1" as="geometry" />
        </mxCell>
        <mxCell id="20" value="JavaScripy(ECMAScript)" style="rounded=1;strokeColor=#d6b656;shadow=1;fontStyle=1;fontSize=14;fillColor=#fff2cc;" parent="1" vertex="1">
          <mxGeometry x="676.75" y="590" width="200" height="60" as="geometry" />
        </mxCell>
        <mxCell id="21" value="PÁGINS ( PÁG. INICIAL. &#xa;SOBRE, CONTATO, QUIZ&#xa;E MATRÍCULA)" style="rounded=1;shadow=1;fontStyle=1;fontSize=14;fillColor=#fff2cc;strokeColor=#FFD966;" parent="1" vertex="1">
          <mxGeometry x="892" y="700" width="200" height="60" as="geometry" />
        </mxCell>
        <mxCell id="22" value="VERIFICAÇÃO FUNCIONAL&#xa;DO PROJETO" style="rounded=1;shadow=1;fontStyle=1;fontSize=14;fillColor=#fff2cc;strokeColor=#FFD966;" parent="1" vertex="1">
          <mxGeometry x="1110" y="480" width="200" height="60" as="geometry" />
        </mxCell>
        <mxCell id="p5EANFIyzBUAHmhCL9tE-105" style="edgeStyle=orthogonalEdgeStyle;curved=0;rounded=1;sketch=0;orthogonalLoop=1;jettySize=auto;html=1;exitX=0.5;exitY=1;exitDx=0;exitDy=0;fontColor=#FFFFFF;" edge="1" parent="1" source="23" target="26">
          <mxGeometry relative="1" as="geometry" />
        </mxCell>
        <mxCell id="23" value="ENCERRAMENTO" style="rounded=1;shadow=1;fontStyle=1;fontSize=14;fillColor=#dae8fc;strokeColor=#D4E1F5;" parent="1" vertex="1">
          <mxGeometry x="1330" y="370" width="200" height="60" as="geometry" />
        </mxCell>
        <mxCell id="p5EANFIyzBUAHmhCL9tE-100" style="edgeStyle=orthogonalEdgeStyle;curved=0;rounded=1;sketch=0;orthogonalLoop=1;jettySize=auto;html=1;exitX=0.5;exitY=1;exitDx=0;exitDy=0;entryX=0.5;entryY=0;entryDx=0;entryDy=0;fontColor=#FFFFFF;" edge="1" parent="1" source="24" target="25">
          <mxGeometry relative="1" as="geometry" />
        </mxCell>
        <mxCell id="24" value="PROTÓTIPOS DE ALTA E &#xa;BAIXA FIDELIDADE" style="rounded=1;shadow=1;fontStyle=1;fontSize=14;fillColor=#fff2cc;strokeColor=#FFD966;" parent="1" vertex="1">
          <mxGeometry x="892" y="480" width="200" height="60" as="geometry" />
        </mxCell>
        <mxCell id="p5EANFIyzBUAHmhCL9tE-102" style="edgeStyle=orthogonalEdgeStyle;curved=0;rounded=1;sketch=0;orthogonalLoop=1;jettySize=auto;html=1;exitX=0.5;exitY=1;exitDx=0;exitDy=0;entryX=0.5;entryY=0;entryDx=0;entryDy=0;fontColor=#FFFFFF;" edge="1" parent="1" source="25" target="21">
          <mxGeometry relative="1" as="geometry" />
        </mxCell>
        <mxCell id="25" value="ESTRUTURA DO SITE" style="rounded=1;shadow=1;fontStyle=1;fontSize=14;fillColor=#fff2cc;strokeColor=#FFD966;" parent="1" vertex="1">
          <mxGeometry x="892" y="590" width="200" height="60" as="geometry" />
        </mxCell>
        <mxCell id="p5EANFIyzBUAHmhCL9tE-107" style="edgeStyle=orthogonalEdgeStyle;curved=0;rounded=1;sketch=0;orthogonalLoop=1;jettySize=auto;html=1;exitX=0.5;exitY=1;exitDx=0;exitDy=0;entryX=0.5;entryY=0;entryDx=0;entryDy=0;fontColor=#FFFFFF;fillColor=#fff2cc;" edge="1" parent="1" source="26" target="27">
          <mxGeometry relative="1" as="geometry" />
        </mxCell>
        <mxCell id="26" value=" APRESENTAÇÃO AO&#xa;CLIENTE" style="rounded=1;shadow=1;fontStyle=1;fontSize=14;fillColor=#fff2cc;strokeColor=#FFD966;" parent="1" vertex="1">
          <mxGeometry x="1330" y="480" width="200" height="60" as="geometry" />
        </mxCell>
        <mxCell id="27" value="ENTREGA AO CLIENTE" style="rounded=1;shadow=1;fontStyle=1;fontSize=14;fillColor=#fff2cc;strokeColor=#FFD966;" parent="1" vertex="1">
          <mxGeometry x="1330" y="590" width="200" height="60" as="geometry" />
        </mxCell>
      </root>
    </mxGraphModel>
  </diagram>
</mxfile>
